C:\GBW_MyPrograms\PredSimResults\Vitruvian_man\IG_v18ms_QR.mot
version=1
nRows=5
nColumns=35
inDegrees=yes
endheader
                time	         pelvis_tilt	           pelvis_tx	           pelvis_ty	       hip_flexion_r	        knee_angle_r	       ankle_angle_r	         mtp_angle_r	       hip_flexion_l	        knee_angle_l	       ankle_angle_l	         mtp_angle_l	    lumbar_extension	          arm_flex_r	          arm_flex_l	        elbow_flex_r	        elbow_flex_l	hamstrings_r/activation	bifemsh_r/activation	glut_max_r/activation	iliopsoas_r/activation	rect_fem_r/activation	  vasti_r/activation	gastroc_r/activation	 soleus_r/activation	tib_ant_r/activation	hamstrings_l/activation	bifemsh_l/activation	glut_max_l/activation	iliopsoas_l/activation	rect_fem_l/activation	  vasti_l/activation	gastroc_l/activation	 soleus_l/activation	tib_ant_l/activation	
          2.51202416	         -9.69477315	          4.48571034	          0.97205999	          3.15107174	         -5.32997323	         11.29783351	          4.09606035	         34.18055901	        -16.93579753	        -10.46765820	          0.68421299	        -13.06351867	        -14.87248792	        -14.87248777	         19.57677712	         19.57677746	          0.14394600	          0.38567211	          0.28207710	          0.28306526	          0.05229345	          0.05001288	          0.46121210	          0.45075153	          0.19498502	          0.60987614	          0.24619930	          0.52283644	          0.12977461	          0.08626993	          0.05000222	          0.07021602	          0.18031207	          0.21955827	
          2.52877099	        -10.76775955	          4.52384493	          0.96412744	          3.03475108	         -7.56658894	         12.64322298	          7.21330697	         35.44983140	        -21.86875711	         -5.79802635	          1.19233666	        -10.79361958	        -20.01249369	        -20.01249354	         15.81540457	         15.81540481	          0.14756818	          0.45819446	          0.23755438	          0.26208443	          0.05000397	          0.05000854	          0.48248581	          0.51750022	          0.15243803	          0.47679625	          0.19247778	          0.77454294	          0.10145719	          0.06744606	          0.05003129	          0.05489556	          0.42482144	          0.17165160	
          2.54551781	        -11.81505793	          4.56268231	          0.96064082	          2.83612806	         -9.55910763	         11.89091769	         10.46827642	         36.34569132	        -26.01451827	         -3.03644701	          2.96441607	         -8.21795158	        -25.16903793	        -25.16903778	         12.41009624	         12.41009640	          0.17011712	          0.55930098	          0.18572822	          0.30041768	          0.05000455	          0.05000398	          0.45278770	          0.43473383	          0.11917508	          0.37275593	          0.15047909	          0.89286879	          0.07931894	          0.05273037	          0.30913129	          0.05000679	          0.60274860	          0.13421150	
          2.56226464	        -12.73661855	          4.60229357	          0.96176047	          2.77337252	        -11.84807127	          9.18505436	         13.67712863	         35.95276914	        -28.03659327	         -1.86599226	          5.46013503	         -5.46053216	        -30.34776675	        -30.34776660	          9.54767076	          9.54767085	          0.18170847	          0.51557597	          0.21902607	          0.29496376	          0.05000292	          0.05000294	          0.35399318	          0.33987154	          0.09317031	          0.29144502	          0.11764488	          0.69803836	          0.06201150	          0.05000320	          0.45263966	          0.16225480	          0.72659134	          0.10492742	
          2.57901147	        -13.39920970	          4.64224338	          0.96713198	          2.94585682	        -14.72464591	          4.72239303	         16.42580861	         34.11605048	        -27.90241108	         -1.90361791	          8.36893477	         -2.78918095	        -35.51994925	        -35.51994910	          7.61763846	          7.61763850	          0.15610682	          0.40309007	          0.17123795	          0.33976132	          0.05000211	          0.05000178	          0.27674998	          0.26570877	          0.07284000	          0.25447089	          0.09197540	          0.54572061	          0.05000138	          0.05000356	          0.35387143	          0.25276975	          0.76888556	          0.08203215	
